<svg width="461" height="433" viewBox="0 0 461 433" fill="none" xmlns="http://www.w3.org/2000/svg">
<path d="M56.1447 77.9778C118.959 62.5074 258.364 29.425 295.281 25.1694C323.747 21.8879 345.003 27.4685 368.218 36.956C385.757 44.1242 395.667 71.9621 404.581 107.515C408.101 121.555 405.162 128.519 395.253 145.372C385.345 162.225 367.425 189.025 343.582 216.551C319.739 244.077 290.516 271.517 251.874 302.352C213.232 333.187 166.056 366.586 115.432 398.34" stroke="#333333" stroke-width="3" stroke-linecap="round"/>
<path d="M119.885 356.27C129.065 362.903 149.501 380.059 166.209 391.78C169.988 394.43 171.174 396.225 165.042 399.388C133.188 415.819 109.677 423.393 93.9749 429.239C59.0981 442.223 108.426 394.659 115.868 382.353C116.705 379.624 117.076 377.202 118.403 373.537C119.731 369.871 122.003 365.036 124.288 359.216" stroke="#333333" stroke-width="3" stroke-linecap="round"/>
<path d="M141.693 369.368C141.658 369.222 143.283 376.687 144.699 386.517C144.928 388.109 138.528 375.034 134.534 366.553C133.091 363.488 119.539 382.989 111.743 392.711C111.185 393.406 118.263 387.538 123.334 383.959C128.42 380.37 133.793 391.734 134.969 398.594C135.261 400.3 133.551 398.706 134.21 398.448C134.87 398.19 137.597 399.396 138.085 401.404C138.572 403.411 136.738 406.185 135.012 406.804C133.286 407.422 131.724 405.802 128.592 405.926C125.459 406.051 120.803 407.97 110.26 407.312" stroke="#333333" stroke-width="3" stroke-linecap="round"/>
</svg>
