<svg width="26" height="26" viewBox="0 0 26 26" fill="none" xmlns="http://www.w3.org/2000/svg">
<path d="M12.8084 11.5091C12.9934 10.9294 13.1812 10.3276 13.3678 9.71467C12.9667 7.929 12.7287 6.33552 12.7764 5.24477C13.1258 5.6287 13.6009 6.32539 14.1271 7.1311C14.565 5.58349 14.9638 4.06068 15.2656 2.73056C15.4411 1.95739 15.4238 4.57898 15.0596 8.57245C15.912 9.88688 16.7845 11.1858 17.4144 11.7516C17.9111 11.3287 18.3025 10.9962 18.5356 10.8123C18.841 10.5712 18.8745 10.5852 18.5169 10.9849C18.4042 11.9093 18.1402 12.2446 17.6577 11.9403C17.1989 12.4693 16.6104 13.1738 16.0427 13.8923C22.0303 13.1856 25.0845 13.6921 23.1517 14.004C20.8247 14.3795 18.2275 15.6048 15.9882 16.4945C17.4102 19.1044 18.3006 21.3251 18.3239 21.8131C18.4359 24.1546 16.8914 21.0098 15.4032 16.7218C15.0407 16.8588 14.6898 16.9837 14.3533 17.0907C13.7303 17.2889 14.1616 16.4573 14.9427 15.352C14.8126 14.9524 14.6844 14.5473 14.5593 14.1398C14.5038 14.1847 14.4482 14.2297 14.3924 14.2746C14.0195 16.8734 13.5256 19.6216 12.8859 22.1975C12.1879 25.0083 8.1919 21.7307 6.07101 19.7498L6.06899 19.7479C4.06315 17.8745 2.86689 16.7572 5.82684 15.8607C4.68691 14.346 3.9181 12.1729 3.34582 10.5007C2.86123 9.0846 2.61142 7.7118 3.181 7.28763C6.37997 4.90535 9.94265 7.72866 12.8084 11.5091Z" fill="#3C6E47"/>
<path d="M9.09359 15.9893C8.77978 16.4169 8.64869 16.9517 8.72918 17.476C8.80966 18.0003 9.09513 18.4711 9.52277 18.7849C9.95041 19.0988 10.4852 19.2299 11.0095 19.1494C11.5338 19.0689 12.0046 18.7834 12.3184 18.3558C12.3184 18.3558 12.3184 18.3558 12.3184 18.3558C14.0963 14.7839 14.5308 12.5654 15.4723 9.66396C16.0047 7.88252 16.5086 6.09064 16.9578 4.26512C17.0471 3.90092 17.1338 3.53541 17.216 3.17313C17.2143 3.17976 17.2102 3.20131 17.1912 3.26162C17.1813 3.29225 17.1677 3.33289 17.1425 3.39368C17.1057 3.47541 17.0634 3.59399 16.8958 3.81914C16.7342 4.00683 16.3582 4.53281 15.375 4.59456C14.3619 4.58497 13.9461 4.06118 13.7417 3.81851C13.5404 3.54749 13.4936 3.39381 13.451 3.28421C13.3745 3.04785 13.3936 3.07651 13.3815 3.03022C13.3697 2.96735 13.3678 2.94329 13.3666 2.9333C13.3651 2.91052 13.3708 3.00074 13.3716 3.06043C13.3752 3.21603 13.3739 3.39425 13.3711 3.56003C13.3648 3.92341 13.3513 4.28221 13.3337 4.66317C13.2988 5.4062 13.2494 6.16273 13.1915 6.91978C13.0757 8.42815 12.9253 9.94424 12.7456 11.4527C12.3838 14.47 11.9105 17.472 11.255 20.402C11.1565 20.8408 11.0524 21.2822 10.9448 21.7154C10.9294 21.7975 10.9054 21.7342 11.0819 21.5501C11.2612 21.3553 11.6049 21.2758 11.6489 21.2888C11.7471 21.3124 11.3073 21.2111 10.9344 20.9958C10.1367 20.5675 9.2518 19.8857 8.41798 19.1698C8.08694 18.885 7.7583 18.5891 7.43617 18.2882C6.91202 17.7983 6.37346 17.298 6.0862 16.9432C5.9352 16.7994 5.95826 16.5881 6.04509 17.1032C6.07893 17.364 5.93637 17.7756 5.81374 17.9157C5.69338 18.0715 5.65404 18.0736 5.68096 18.0603C5.80207 17.9734 6.34478 17.7745 6.86314 17.6487C12.1083 16.3435 17.8045 15.3517 22.7918 15.5902C22.8754 15.5989 22.9572 15.61 23 15.6178C23.0188 15.6209 23.0364 15.6254 23.0159 15.6203C23.0078 15.618 22.987 15.6132 22.9371 15.5956C22.9125 15.5869 22.8816 15.5751 22.8418 15.5577C22.803 15.5396 22.7566 15.5223 22.6336 15.4479C22.5205 15.3758 22.3625 15.2713 22.1704 15.0408C22.0037 14.9275 21.5305 13.9031 21.8212 13.2096C21.8712 13.0458 21.9605 12.8715 22.0089 12.7938C22.0555 12.7164 22.1032 12.6491 22.1497 12.5904C22.2429 12.473 22.3302 12.3891 22.406 12.3243C22.553 12.1986 22.6842 12.1279 22.7283 12.1044C22.9208 12.007 22.9592 12.0092 22.9668 12.0044C22.9794 12.0015 22.9159 12.0166 22.8331 12.0295C19.9557 12.5353 17.6537 13.6863 15.42 14.5678C14.8435 14.7991 14.2788 15.0154 13.7471 15.1848C13.8429 15.1697 13.8745 15.0978 14.3978 15.1315C14.5764 15.1394 15.1655 15.2905 15.5366 15.7015C15.9243 16.0938 16.0365 16.6277 16.0464 16.796C16.0745 17.2695 16.0108 17.3121 15.9993 17.3919C15.9829 17.4458 15.9771 17.455 15.9799 17.4494C15.994 17.4127 16.0916 17.2343 16.1936 17.0744C16.4024 16.7434 16.6693 16.3693 16.9411 16.0043C17.4891 15.2705 18.0863 14.5298 18.6916 13.8095C19.0257 13.4131 19.3766 13.0046 19.6901 12.6652C19.8049 12.5416 19.883 12.4569 19.993 12.3345C20.0507 12.2702 20.1028 12.2111 20.152 12.1538C20.1896 12.1098 20.2275 12.0646 20.266 12.0166C20.3122 11.9528 20.3133 11.9766 20.4854 11.7035C20.5262 11.6324 20.5777 11.547 20.646 11.3688C20.6629 11.3235 20.6807 11.2715 20.6985 11.2088C20.7105 11.1627 20.7057 11.1924 20.7342 11.0619C20.7608 10.9267 20.7876 10.7496 20.7683 10.4964C20.7906 10.021 20.2433 9.03314 19.5366 8.80565C18.8705 8.55555 18.5234 8.6709 18.3146 8.70489C18.1116 8.75198 17.976 8.81487 17.9363 8.83203C17.915 8.84152 17.8958 8.85053 17.8781 8.85912C17.8426 8.87629 17.813 8.89174 17.7869 8.90591C17.7348 8.93423 17.6961 8.95759 17.6626 8.97846C17.5243 9.06655 17.4878 9.09734 17.4439 9.12904C17.355 9.19528 17.2816 9.25395 17.2251 9.29917C17.0904 9.4077 16.9975 9.48511 16.8768 9.58597C16.4473 9.9462 16.0361 10.2991 15.6296 10.6443C14.8143 11.3374 13.9959 12.0247 13.176 12.6863C12.3566 13.3468 11.5255 13.9933 10.7047 14.5696C10.2927 14.8582 9.87794 15.132 9.49366 15.3525C9.30251 15.4623 9.11553 15.5593 8.96904 15.6228C8.84093 15.689 8.66764 15.7013 8.91543 15.6752C8.89135 15.6761 8.86833 15.6763 8.84614 15.6758C7.87885 15.9215 6.15689 12.8397 5.32434 10.1044C5.29523 10.0199 5.26649 9.9361 5.23809 9.8531C5.10185 9.45509 4.98668 9.05997 4.91743 8.71627C4.88294 8.54625 4.86128 8.3884 4.85546 8.28171C4.84467 8.18039 4.87529 8.11134 4.83161 8.27645C4.8018 8.37654 4.68578 8.6608 4.37556 8.8917C5.91716 7.335 9.01279 9.74372 11.1164 12.5887C13.2516 15.408 15.2312 18.9569 16.3313 22.0246C16.3484 22.0635 16.3503 22.1781 16.3262 21.9087C16.3393 22.0409 16.3077 22.2061 16.3469 21.9769C16.3656 21.911 16.3964 21.7116 16.6128 21.3984C16.6746 21.2989 17.006 20.9041 17.4661 20.7388C17.9311 20.5495 18.4442 20.6151 18.6397 20.6762C19.1259 20.8195 19.2851 21.0137 19.3273 21.0411C19.3912 21.099 19.4159 21.1299 19.4257 21.1414C19.4207 21.1457 19.2074 20.7933 19.0631 20.4935C18.7542 19.8698 18.4539 19.156 18.1704 18.4412C17.6057 17.0104 17.0914 15.5267 16.6216 14.0364C15.7253 11.1174 14.7847 7.81511 14.7745 5.3321L11.2973 6.59094C11.383 6.68417 11.5358 6.88161 11.6778 7.0797C13.0608 8.9371 14.9344 10.6707 17.2942 12.492C17.4468 12.5718 17.6025 12.6567 17.889 12.6788C18.2198 12.7181 18.6082 12.4676 18.7239 12.2718C18.8619 12.0757 18.9135 11.9012 18.9526 11.7564C19.2655 8.56291 18.6729 5.89988 18.3873 3.01164C18.3824 2.9724 18.3614 2.93596 18.33 2.91026C18.2986 2.88456 18.2595 2.8717 18.2201 2.8746C18.1807 2.8775 18.1439 2.89593 18.1166 2.92594C18.0893 2.95595 18.0738 2.99507 18.0747 3.03461C18.0747 3.03461 18.0747 3.03461 18.0747 3.03461C18.0868 5.84704 18.4345 8.93889 17.8444 11.4062C17.815 11.4774 17.7707 11.5405 17.7662 11.5285C17.7431 11.5214 17.8989 11.4055 17.9901 11.4179C18.0609 11.4195 18.0397 11.4162 18.007 11.3795C16.715 9.81062 16.4642 6.89117 14.9247 4.74356C14.7345 4.48182 14.5457 4.2215 14.2555 3.8986L10.9902 0.310692L10.7783 5.15743C10.8406 9.10808 11.8684 12.0314 12.806 15.237C13.3021 16.8096 13.8393 18.3625 14.4511 19.9132C14.7618 20.6943 15.0829 21.4676 15.4817 22.275C15.7127 22.7139 15.8373 23.0361 16.3421 23.6892C16.4266 23.791 16.5219 23.8973 16.6522 24.0149C16.7429 24.0889 17.0289 24.3774 17.5926 24.5367C17.8251 24.6087 18.3958 24.6787 18.9064 24.4706C19.4109 24.291 19.7936 23.8431 19.8721 23.7173C20.1351 23.3426 20.2099 23.0187 20.2492 22.8555C20.3645 22.2565 20.3275 22.0423 20.3216 21.7175C20.309 21.4887 20.2796 21.3486 20.25 21.2099C20.2238 21.094 20.2059 21.0275 20.1811 20.9387C18.6641 16.7165 16.77 13.5076 14.2898 10.1536C13.0195 8.52434 11.6344 6.92968 9.6351 5.65451C7.82262 4.31085 4.10529 3.84159 1.98645 5.68357C1.41735 6.10557 1.13656 6.68164 1.013 7.08554C0.699106 8.30742 0.902248 8.87956 0.996147 9.50592C1.11857 10.1067 1.27889 10.6347 1.45356 11.1482C1.48254 11.2329 1.51218 11.3193 1.54248 11.4073C2.06151 12.9016 2.62272 14.4663 3.5407 16.0304C4.41534 17.484 5.97443 19.5806 8.75902 19.6749C8.86324 19.6772 8.96794 19.6762 9.07289 19.6721C10.4986 19.5117 10.8753 19.1212 11.483 18.8228C12.0332 18.5062 12.524 18.1782 13.0006 17.845C13.9424 17.1833 14.825 16.4944 15.6878 15.7993C16.5486 15.1047 17.3938 14.3946 18.22 13.6922C18.6296 13.3444 19.0489 12.9848 19.4438 12.6536C19.5522 12.563 19.6363 12.4932 19.7302 12.4176C19.7676 12.3875 19.8157 12.3498 19.8311 12.3386C19.833 12.3363 19.8548 12.324 19.7808 12.3715C19.7616 12.3835 19.7357 12.3993 19.6951 12.4214C19.6747 12.4324 19.6505 12.4451 19.6201 12.4599C19.6048 12.4672 19.588 12.4751 19.5691 12.4836C19.5342 12.4985 19.4105 12.5567 19.2135 12.6026C19.0115 12.635 18.6696 12.7503 18.0071 12.5017C17.3041 12.2757 16.7587 11.2909 16.7814 10.8201C16.7623 10.5692 16.7889 10.3949 16.8148 10.2628C16.8427 10.1355 16.8379 10.1645 16.8496 10.1199C16.8668 10.0592 16.8839 10.0094 16.8999 9.96641C16.9647 9.79751 17.0104 9.72363 17.043 9.66646C17.1713 9.46395 17.1339 9.53365 17.1435 9.51661C17.1429 9.51734 17.1316 9.53117 17.1145 9.55111C17.0921 9.57732 17.0584 9.61569 17.0157 9.66332C16.9328 9.75553 16.8637 9.83067 16.7606 9.94159C16.3464 10.3909 15.9954 10.8025 15.6311 11.2339C14.9824 12.0063 14.3523 12.7864 13.7339 13.6139C13.4245 14.0304 13.1173 14.4556 12.8087 14.9431C12.6513 15.1978 12.4959 15.4426 12.313 15.8512C12.2719 15.9453 12.2136 16.0893 12.1666 16.2475C12.1192 16.4526 12.029 16.6048 12.0675 17.2063C12.081 17.4244 12.2164 18.0335 12.6441 18.4643C13.0517 18.9173 13.7159 19.0939 13.9431 19.1056C14.5977 19.15 14.7263 19.0532 14.9596 18.9966C15.6542 18.7747 16.2908 18.5279 16.9105 18.2797C19.2531 17.3343 21.46 16.3129 23.4703 15.9784C23.6534 15.9475 23.781 15.9274 24.0391 15.858C24.1363 15.8291 24.328 15.7809 24.5988 15.6401C24.6642 15.6058 24.8353 15.5106 25.002 15.3674C25.0888 15.2931 25.1854 15.1998 25.286 15.073C25.3362 15.0096 25.3872 14.9376 25.4366 14.8556C25.4881 14.7729 25.5819 14.5895 25.634 14.4187C25.9358 13.6977 25.4466 12.6354 25.2648 12.506C25.058 12.2575 24.8784 12.1352 24.7369 12.0455C24.5825 11.9519 24.51 11.9227 24.4493 11.8949C24.3859 11.8671 24.3289 11.8452 24.2759 11.8263C24.1691 11.7884 24.0784 11.7636 24.0248 11.7496C23.9081 11.7188 23.7689 11.6914 23.6954 11.6787C23.5168 11.6473 23.3555 11.6275 23.2089 11.612C16.977 11.325 11.5022 12.411 5.87961 13.7715C5.17044 13.9675 4.50285 14.1085 3.54144 14.6806C3.2658 14.8592 2.92938 15.0953 2.59356 15.5428C2.25251 15.9725 1.99123 16.752 2.05442 17.3762C2.20488 18.6244 2.68494 19.0442 2.97671 19.4593C3.61748 20.2293 4.17128 20.703 4.70586 21.2115C5.06379 21.5457 5.4317 21.8773 5.80974 22.2024C6.77749 23.0246 7.76322 23.8228 9.05314 24.5258C9.72854 24.8572 10.4025 25.2577 11.6992 25.2885C12.3345 25.2998 13.2809 25.0251 13.8831 24.4054C14.4834 23.8042 14.698 23.1758 14.8269 22.6795C14.9422 22.2152 15.0531 21.7445 15.1578 21.2785C15.8532 18.1682 16.3422 15.0528 16.7174 11.9263C16.9036 10.3632 17.0591 8.79622 17.1798 7.22526C17.2401 6.43594 17.2919 5.64603 17.3293 4.84992C17.3483 4.44013 17.3631 4.05307 17.3706 3.62727C17.3722 3.528 17.3735 3.41892 17.3738 3.30734C17.374 3.20206 17.3734 3.08917 17.3705 2.96563C17.3675 2.85728 17.3647 2.71558 17.3453 2.5208C17.338 2.45242 17.3293 2.37941 17.31 2.27731C17.2937 2.21133 17.3112 2.2254 17.2222 1.95085C17.1744 1.82659 17.1221 1.66185 16.9151 1.38341C16.7049 1.13333 16.2839 0.605767 15.2634 0.596122C14.273 0.658079 13.8896 1.18924 13.72 1.38718C13.5446 1.62248 13.494 1.75682 13.4489 1.85839C13.4176 1.93407 13.3976 1.99235 13.3812 2.04339C13.3491 2.14454 13.3313 2.21803 13.3152 2.28799C13.2389 2.62431 13.1574 2.96776 13.0729 3.31238C12.6475 5.04207 12.1577 6.786 11.6404 8.51659C10.8791 11.0658 9.78366 14.4143 9.09359 15.9893Z" fill="#3C6E47"/>
</svg>
