<svg width="295" height="131" viewBox="0 0 295 131" fill="none" xmlns="http://www.w3.org/2000/svg">
<path d="M3.61076 69.7812C3.61076 62.9453 -9.63188 6.66877 23.5326 6.66876C32.3504 6.66876 51.5717 0.580585 79.395 1.02299C104.948 1.42931 134.049 43.2521 155.475 80.2578C163.67 94.4122 161.321 106.277 160.306 112.021C157.959 125.293 120.553 129.239 98.9742 129.992C81.0891 130.617 95.3622 92.855 107.582 69.7812C112.011 61.4191 117.527 56.7889 122.894 52.9549C136.067 43.5435 176.089 46.9302 203.162 48.9316C216.642 52.6345 227.656 58.1114 265.189 90.4994C273.535 98.1033 276.479 101.284 284 109.83" stroke="#F9F5E3" stroke-width="2" stroke-linecap="round"/>
<path d="M264 112.26C265.853 110.802 277.323 102.946 284.521 97.0047C285.963 95.814 287.761 94.3242 289.347 94.0481C290.932 93.7721 292.203 94.7226 292.684 95.9004C295.815 103.558 292.421 113.252 292.067 115.124C291.181 119.795 280.149 114.477 270.833 112.795C260.253 110.884 283.942 106.044 285.208 105.192C286.613 104.247 282.34 108.859 281.049 109.321C277.12 110.729 283.721 102.397 284.337 101.147C284.951 99.899 285.548 105.5 285.667 107.705C285.786 108.01 286.024 106.662 286.55 106.62C287.076 106.579 287.883 107.884 289.41 111.5" stroke="#F9F5E3" stroke-width="2" stroke-linecap="round"/>
</svg>
