<svg width="387" height="379" viewBox="0 0 387 379" fill="none" xmlns="http://www.w3.org/2000/svg">
<path d="M350.26 132.443C309.368 106.444 218.316 49.6331 193.126 37.7866C173.703 28.6519 157.28 27.532 138.532 28.7173C124.367 29.6128 110.678 47.0055 95.8505 70.113C89.9955 79.2377 90.4169 84.8839 93.4219 99.2165C96.4269 113.549 102.741 136.858 113.086 162.098C123.431 187.338 137.616 213.804 157.676 244.931C177.736 276.058 203.241 311.045 231.587 345.688" stroke="#F9F5E3" stroke-width="3" stroke-linecap="round"/>
<path d="M238.483 314.759C230.381 317.272 211.772 324.566 197.109 328.892C193.793 329.87 192.522 330.861 196.119 334.572C214.804 353.851 229.683 364.849 239.432 372.752C261.086 390.307 237.44 344.75 235.099 334.234C235.158 332.098 235.473 330.289 235.407 327.37C235.341 324.451 234.884 320.475 234.653 315.797" stroke="#F9F5E3" stroke-width="3" stroke-linecap="round"/>
<path d="M219.871 318.843C219.93 318.748 216.992 323.659 213.637 330.298C213.094 331.374 220.763 323.622 225.625 318.557C227.383 316.726 232.341 333.809 235.552 342.574C235.781 343.201 232.16 337.343 229.415 333.59C226.663 329.827 220.132 336.609 217.657 341.198C217.042 342.339 218.637 341.616 218.231 341.275C217.824 340.935 215.6 341.139 214.774 342.447C213.948 343.756 214.587 346.164 215.664 347.015C216.742 347.867 218.237 347.09 220.431 347.927C222.625 348.765 225.472 351.24 233.114 353.293" stroke="#F9F5E3" stroke-width="3" stroke-linecap="round"/>
</svg>
